<?xml version="1.0" encoding="utf-8"?>
<svg viewBox="125.954 145.758 157.359 143.414" width="157.359" height="143.414" xmlns="http://www.w3.org/2000/svg">
  <rect opacity="0.5" x="15.0312" width="51.5427" height="51.5427" rx="10" fill="#9E96FF" transform="matrix(1, 0, 0, 1, 124.9713, 145.75812)"/>
  <rect opacity="0.5" x="128.982" y="32.8701" width="29.3594" height="29.3594" rx="10" fill="#9E96FF" transform="matrix(1, 0, 0, 1, 124.9713, 145.75812)"/>
  <rect opacity="0.5" x="0.982422" y="74.8701" width="31.5329" height="31.5329" rx="8" fill="#DEDBFF" transform="matrix(1, 0, 0, 1, 124.9713, 145.75812)"/>
  <rect opacity="0.5" x="115.27" y="106.821" width="36.5935" height="36.5935" rx="8" fill="#DEDBFF" transform="matrix(1, 0, 0, 1, 124.9713, 145.75812)"/>
  <rect x="34.6998" y="36.8159" width="88.1725" height="72.9505" fill="white" transform="matrix(1, 0, 0, 1, 124.9713, 145.75812)"/>
  <rect x="48.084" y="58.7173" width="61.4032" height="14.6633" rx="0.680278" fill="#4A3AFF" transform="matrix(1, 0, 0, 1, 124.9713, 145.75812)"/>
  <rect x="48.084" y="80.5576" width="28.0755" height="18.9568" rx="0.680278" fill="#4A3AFF" transform="matrix(1, 0, 0, 1, 124.9713, 145.75812)"/>
  <rect x="81.4128" y="80.5576" width="28.0755" height="5.97824" rx="0.680278" fill="#4A3AFF" transform="matrix(1, 0, 0, 1, 124.9713, 145.75812)"/>
  <rect x="81.4128" y="93.5371" width="28.0755" height="5.97824" rx="0.680278" fill="#4A3AFF" transform="matrix(1, 0, 0, 1, 124.9713, 145.75812)"/>
  <path d="M31 103.747C31 106.963 32.2778 110.048 34.5522 112.322C36.8266 114.597 39.9114 115.875 43.128 115.875H115.896C119.112 115.875 122.197 114.597 124.472 112.322C126.746 110.048 128.024 106.963 128.024 103.747V45.128C128.024 41.9114 126.746 38.8266 124.472 36.5522C122.197 34.2778 119.112 33 115.896 33H43.128C39.9114 33 36.8266 34.2778 34.5522 36.5522C32.2778 38.8266 31 41.9114 31 45.128V103.747ZM89.6186 43.1067C89.5997 43.8247 89.3844 44.5238 88.9961 45.128C88.6588 45.7399 88.1636 46.25 87.562 46.6054C86.9605 46.9607 86.2746 47.1481 85.576 47.1481C84.8773 47.1481 84.1914 46.9607 83.5899 46.6054C82.9883 46.25 82.4931 45.7399 82.1559 45.128C81.7675 44.5238 81.5522 43.8247 81.5333 43.1067C81.5516 42.3885 81.7669 41.6893 82.1559 41.0853C82.4931 40.4735 82.9883 39.9633 83.5899 39.608C84.1914 39.2527 84.8773 39.0652 85.576 39.0652C86.2746 39.0652 86.9605 39.2527 87.562 39.608C88.1636 39.9633 88.6588 40.4735 88.9961 41.0853C89.385 41.6893 89.6004 42.3885 89.6186 43.1067ZM103.768 43.1067C103.749 43.8247 103.534 44.5238 103.145 45.128C102.808 45.7399 102.313 46.25 101.711 46.6054C101.11 46.9607 100.424 47.1481 99.7253 47.1481C99.0266 47.1481 98.3408 46.9607 97.7392 46.6054C97.1377 46.25 96.6424 45.7399 96.3052 45.128C95.9168 44.5238 95.7015 43.8247 95.6826 43.1067C95.7009 42.3885 95.9163 41.6893 96.3052 41.0853C96.6424 40.4735 97.1377 39.9633 97.7392 39.608C98.3408 39.2527 99.0266 39.0652 99.7253 39.0652C100.424 39.0652 101.11 39.2527 101.711 39.608C102.313 39.9633 102.808 40.4735 103.145 41.0853C103.534 41.6893 103.75 42.3885 103.768 43.1067ZM117.917 43.1067C117.898 43.8247 117.683 44.5238 117.295 45.128C116.957 45.7399 116.462 46.25 115.861 46.6054C115.259 46.9607 114.573 47.1481 113.875 47.1481C113.176 47.1481 112.49 46.9607 111.889 46.6054C111.287 46.25 110.792 45.7399 110.455 45.128C110.066 44.5238 109.851 43.8247 109.832 43.1067C109.85 42.3885 110.066 41.6893 110.455 41.0853C110.797 40.4779 111.294 39.9714 111.894 39.6166C112.494 39.2618 113.177 39.0712 113.875 39.064C114.651 39.0675 115.411 39.2947 116.062 39.7184C116.713 40.1421 117.228 40.7444 117.545 41.4532C117.786 41.9714 117.913 42.5352 117.917 43.1067ZM39.0853 54.2199C39.0853 53.9519 39.1918 53.6948 39.3813 53.5053C39.5709 53.3158 39.8279 53.2093 40.096 53.2093H118.928C119.196 53.2093 119.453 53.3158 119.643 53.5053C119.832 53.6948 119.939 53.9519 119.939 54.2199V103.743C119.939 104.815 119.513 105.843 118.755 106.601C117.996 107.359 116.968 107.785 115.896 107.785H43.128C42.0558 107.785 41.0275 107.359 40.2694 106.601C39.5112 105.843 39.0853 104.815 39.0853 103.743V54.2199Z" fill="#4A3AFF" transform="matrix(1, 0, 0, 1, 124.9713, 145.75812)"/>
</svg>